<?xml version="1.0" encoding="utf-8"?>
<!-- Generator: Adobe Illustrator 26.3.1, SVG Export Plug-In . SVG Version: 6.00 Build 0)  -->
<svg version="1.1" id="Layer_1" xmlns="http://www.w3.org/2000/svg" xmlns:xlink="http://www.w3.org/1999/xlink" x="0px" y="0px"
	 viewBox="0 0 341.4 97.9" style="enable-background:new 0 0 341.4 97.9;" xml:space="preserve">
<style type="text/css">
	.st0{fill:#03D7ED;}
	.st1{fill:#231F20;}
</style>
<path class="st0" d="M6.3,96.4c-0.3-0.1-0.4-0.3-0.4-0.6c0-0.3,0.1-0.6,0.4-0.7C6.5,95,29.1,84.4,34,64.9c-2.1-3.5-5-6.4-8.6-8.4
	c-1.6-0.9-3.3-1.7-5.1-2.4c-2.3-0.9-4.7-1.5-7.2-1.9s-5,0.1-7.1,1.4c-2.3,1.5-3,3.7-1.8,5.7c0.5,0.8,1.2,1.4,2,1.7
	c1.3,0.5,2.8,0.3,4-0.4c0.2-0.1,0.3-0.2,0.4-0.2l0.3-0.1c0.5-0.3,1.1-0.3,1.6-0.2c0.9,0.4,1.3,1.5,0.9,2.4c-0.1,0.3-0.3,0.6-0.6,0.7
	c-2,1.7-4.7,2.2-7.2,1.4c-0.2-0.1-0.5-0.1-0.7-0.2c-2.4-0.9-4.2-3-4.7-5.6c-0.5-2.5,0.3-5.1,2.1-6.9c2.7-2.7,6.2-3.8,10.5-3.5
	c3.1,0.3,6.1,1.1,8.9,2.3c1.2,0.5,2.5,1,3.7,1.5c1,0.4,2.1,0.9,3.1,1.3c1.9,0.8,3.9,1.7,6,2.5c1.3,0.5,2.4,0.9,3.6,1.3
	c2.2,0.7,9.4,1.7,13.8,2.1c0.3-2.5,0.3-5,0.2-7.5c-0.2-3.7-0.7-7.5-1.2-11.1c-0.2-1.5-0.4-3-0.6-4.6c-0.5-4.1-0.7-8.3-0.5-12.5
	c0.3-8.3,4.3-15.1,11.6-20c1.8-1.3,3.8-2.4,5.8-3.3h0.1c0.6-0.4,1.4-0.5,2.1-0.3c0.2,0.1,0.3,0.2,0.5,0.3c0.7,0.6,0.9,1.5,0.5,2.3
	v0.2c-1.5,6.2-1.3,12.9,0.7,21.7c0.8,3.6,1.8,7.2,3,10.7c0.9,2.4,1.6,5,1.9,7.6v0.3c0.3-0.1,0.7-0.2,1-0.3l0.6-0.3
	c3.5-1.5,7.2-2.2,11-2c1.1,0.1,2.2,0.3,3.3,0.6l0,0c0.4,0.1,0.8,0.2,1.2,0.4c2.7,1,5,2.8,6.6,5.2c0.8,1.2,1.5,2.4,2,3.8
	c1,3.2,1.3,6.6,0.9,10c0.3,0.2,0.7,0.5,1.1,0.8c4.6,3.3,11.3,8.2,15.6,11.4c0.1,0.1,0.1,0.1,0.2,0.1c0.7,0.3,1.2,1.1,1.1,1.9
	c0,0.3-0.2,0.5-0.4,0.6c-0.4,0.2-0.9,0.2-1.4,0.1c-0.2-0.1-0.5-0.2-0.7-0.4l-0.2-0.2c-2.5-1.6-5.7-3.7-8.7-5.8
	c-2.8-1.8-5.5-3.7-7.7-5.1l-0.4-0.3c-1.3-0.9-2.6-1.7-4-2.3c-0.3-0.1-0.5-0.2-0.8-0.3c-2.4-0.9-5,0.3-5.9,2.7c0,0.1-0.1,0.2-0.1,0.3
	c0.2,0.3,0.6,0.7,0.9,0.9l0.2,0.2c4.5,4.1,9.5,7.6,15,10.2c0.1,0.1,0.2,0.1,0.3,0.1c0.6,0.3,1.5,0.7,1.5,1.9c-0.1,0.9-0.6,1.6-1.4,2
	l-0.2,0.1c-7,4.2-13.7,5.5-20.7,4.1c-0.5-0.1-1-0.3-1.5-0.4h-0.2c-0.1,0-0.2-0.1-0.3-0.1c-0.1,0-0.1,0-0.2-0.1
	c-0.4-0.1-0.8-0.3-1.2-0.4l-0.3-0.1c-0.2-0.1-0.4-0.1-0.6-0.2c-0.9-0.4-1.8-0.7-2.6-1.1s-1.7-0.9-2.5-1.4c-0.5-0.3-0.9-0.7-1.3-1.1
	c-3.7,1.4-7.6,2.1-11.5,1.9c-5-0.4-9.9-1-14.8-2c-0.2,0-0.3-0.1-0.5-0.1c-2.2,3-4.8,5.8-7.7,8.2c-0.4,0.4-0.8,0.8-1.3,1.1
	C31.4,94.1,19.5,100.9,6.3,96.4L6.3,96.4z M35.2,60.4C40.5,68,42,75,39.5,82.2c5.6-5.1,9.5-11.7,11.3-19.1c-3.1-0.2-8.4-0.7-9.8-1
	C39,61.6,37.2,61,35.2,60.4z M81.2,78.1c0.1,0,0.2,0.1,0.4,0.2c0.4,0.2,0.8,0.3,1.2,0.5c0.4,0.2,0.8,0.3,1.2,0.4l0.2,0.1
	c5.7,1.8,11.4,1.3,17.5-1.6c0.2,0,0.3-0.1,0.4-0.2c-5.2-2.9-10-6.4-14.3-10.4c-0.1,0.1-0.2,0.2-0.3,0.4l-0.1,0.2
	c-2.3,3.7-5.4,6.8-9,9.1c0.6,0.4,1.2,0.7,1.9,1c0.1,0.1,0.3,0.1,0.4,0.2l0.2,0.1C81,78,81.1,78.1,81.2,78.1z M91.6,47.5
	c-0.7-0.3-1.5-0.2-2.2,0.1c-0.6,0.3-1.1,0.9-1.3,1.6c-0.2,0.7-0.1,1.4,0.2,2.1c0.1,0.3,0.3,0.5,0.6,0.7c0.3,0.2,0.6,0.4,0.9,0.5
	c0.7,0.3,1.5,0.2,2.2-0.1c1.3-0.7,1.8-2.3,1.1-3.6l0,0c-0.1-0.3-0.3-0.5-0.6-0.7C92.2,47.9,91.9,47.6,91.6,47.5z"/>
<path class="st1" d="M129.6,77.8c-0.6-0.5-0.7-1.3-0.3-1.9l2.9-5.1c0.5-0.7,1.4-0.9,2.1-0.4l0,0c1.8,1.2,5,3.5,9,3.5
	c2.5,0,4.4-1.6,4.4-3.8c0-2.7-2.3-4.4-6.5-6.4c-6.1-3-12.3-6.4-12.3-14c0-6.3,4.9-12.6,14.6-12.6c6.6,0,11.6,3.4,13.5,4.7
	c0.8,0.4,0.6,1.6,0.4,2l-3.2,4.9c-0.6,0.9-1.8,1.1-2.7,0.5l-0.1-0.1c-1.5-1-5.2-3.4-8.5-3.4c-2.7,0-3.9,1.6-3.9,3.5
	c0,2.1,2.5,3.7,6.9,5.9c5.6,2.7,12.8,5.8,12.8,14.4c0,6.5-5.6,13.1-14.9,13.1C135.6,82.7,131,79.2,129.6,77.8z"/>
<path class="st1" d="M160.6,54.7c-0.3-0.7,0-1.4,0.6-1.8c0.2-0.1,0.4-0.1,0.6-0.1h7.5c0.5,0,1,0.3,1.1,0.8l4,15.5h0.1l5.6-15.5
	c0.2-0.5,0.7-0.8,1.3-0.8h7.2c0.7-0.1,1.4,0.5,1.4,1.2c0,0.2,0,0.5-0.1,0.7l-17.3,41.5c-0.2,0.5-0.7,0.8-1.2,0.9h-7.1
	c-1.1,0-1.6-0.9-1.2-2l6.1-15.3L160.6,54.7z"/>
<path class="st1" d="M194.4,39.1c0-0.8,0.6-1.4,1.4-1.4h6.8c0.8,0,1.4,0.6,1.4,1.4v41.5c0,0.8-0.6,1.4-1.3,1.4c0,0,0,0-0.1,0h-6.8
	c-0.8,0-1.4-0.6-1.4-1.3c0,0,0,0,0-0.1L194.4,39.1L194.4,39.1z"/>
<path class="st1" d="M220.8,95.7c0,0.8-0.6,1.4-1.3,1.4c0,0,0,0-0.1,0h-6.8c-0.8,0-1.4-0.6-1.4-1.3c0,0,0,0,0-0.1V54.2
	c0-0.8,0.6-1.4,1.4-1.4h2.9c0.7,0,1.3,0.7,1.5,1.5l0.8,2.4c2.5-2.9,6.1-4.5,9.9-4.5c8.2,0,14.4,6.8,14.4,15.2
	c0,10.3-6.6,15.4-14.4,15.4c-2.4,0-4.7-0.6-6.8-1.7L220.8,95.7L220.8,95.7z M226.1,73.7c3.5,0.1,6.3-2.7,6.4-6.2
	c0.1-3.5-2.7-6.3-6.2-6.4c-3.5-0.1-6.3,2.7-6.4,6.2v0.1c-0.1,3.4,2.6,6.2,6,6.3C226,73.7,226.1,73.7,226.1,73.7z"/>
<path class="st1" d="M247.6,39.1c0-0.8,0.6-1.4,1.4-1.4h6.8c0.8,0,1.4,0.6,1.4,1.4v15.1c1.8-1.3,4-2.1,6.2-2.1
	c9.2,0,12.1,6.7,12.1,14.8v13.7c0,0.8-0.6,1.4-1.4,1.4h-6.8c-0.8,0-1.4-0.6-1.4-1.3c0,0,0,0,0-0.1V66.8c0-3.3-1.2-5.7-4.4-5.7
	c-2.3,0-4.3,1.3-4.3,5.7v13.8c0,0.9-0.3,1.4-1.6,1.4H249c-0.8,0-1.4-0.6-1.4-1.3c0,0,0,0,0-0.1V39.1L247.6,39.1z"/>
<path class="st0" d="M281,80.4l19.8-42.6c0.2-0.4,0.6-0.7,1.1-0.7h0.6c0.5,0,0.9,0.3,1.1,0.7l19.8,42.6c0.3,0.5,0.1,1.2-0.4,1.5
	c-0.2,0.1-0.5,0.2-0.7,0.1h-7c-1.1,0-1.6-0.4-2.2-1.6l-2.3-5h-17.2l-2.3,5.1c-0.3,1-1.3,1.6-2.3,1.5h-7c-0.6,0-1.1-0.4-1.1-1
	C280.9,80.8,280.9,80.6,281,80.4z M307,66.8l-4.8-10.4h-0.1l-4.7,10.4H307z"/>
<path class="st0" d="M326.9,38.9c0-0.6,0.6-1.2,1.2-1.2h7.6c0.6,0,1.2,0.6,1.2,1.2v41.9c0,0.6-0.6,1.2-1.2,1.2h-7.6
	c-0.6,0-1.2-0.6-1.2-1.2V38.9z"/>
</svg>
